<svg width="42" height="43" viewBox="0 0 42 43" fill="none" xmlns="http://www.w3.org/2000/svg">
<g id="Box Icon">
<path id="Rectangle 21" d="M36.9248 0H5.03846C2.2558 0 0 2.25979 0 5.04739V36.9902C0 39.7778 2.2558 42.0376 5.03846 42.0376H36.9248C39.7074 42.0376 41.9632 39.7778 41.9632 36.9902V5.04739C41.9632 2.25979 39.7074 0 36.9248 0Z" fill="#1E1E1E"/>
<g id="Box">
<path id="Rectangle 5" d="M32.0664 26.303L21.3478 32.5023C20.6695 32.8946 20.4371 33.7635 20.8287 34.443C21.2203 35.1225 22.0877 35.3553 22.766 34.963L33.4846 28.7637C34.1629 28.3714 34.3953 27.5025 34.0037 26.823C33.6121 26.1435 32.7447 25.9106 32.0664 26.303Z" fill="#FFD700"/>
<path id="Rectangle 14" d="M32.0663 13.017L21.2884 19.2507C20.6101 19.643 20.3777 20.5119 20.7693 21.1914C21.1609 21.8709 22.0283 22.1038 22.7066 21.7114L33.4845 15.4778C34.1628 15.0855 34.3952 14.2166 34.0036 13.5371C33.612 12.8575 32.7446 12.6247 32.0663 13.017Z" fill="#FFD700"/>
<path id="Rectangle 16" d="M20.7677 5.9874L9.64372 12.4212C8.96541 12.8136 8.733 13.6824 9.12462 14.362C9.51625 15.0415 10.3836 15.2743 11.0619 14.882L22.1859 8.44813C22.8642 8.05581 23.0967 7.18692 22.705 6.50741C22.3134 5.82789 21.4461 5.59508 20.7677 5.9874Z" fill="#FFD700"/>
<path id="Rectangle 12" d="M22.6825 32.4864L11.1228 25.8006C10.4422 25.4069 9.57181 25.6405 9.17883 26.3224C8.78585 27.0043 9.01906 27.8762 9.69972 28.2698L21.2594 34.9556C21.94 35.3493 22.8104 35.1157 23.2033 34.4338C23.5963 33.7519 23.3631 32.88 22.6825 32.4864Z" fill="#FFD700"/>
<path id="Rectangle 13" d="M22.0411 19.4921L11.1062 13.1676C10.4256 12.774 9.55521 13.0076 9.16223 13.6895C8.76925 14.3713 9.00246 15.2432 9.68312 15.6369L20.618 21.9613C21.2987 22.355 22.169 22.1214 22.562 21.4395C22.955 20.7577 22.7218 19.8858 22.0411 19.4921Z" fill="#FFD700"/>
<path id="Rectangle 19" d="M27.3363 15.7434L16.3538 9.3914C15.6731 8.99773 14.8028 9.23135 14.4098 9.91322C14.0168 10.5951 14.25 11.467 14.9307 11.8607L25.9132 18.2127C26.5939 18.6063 27.4642 18.3727 27.8572 17.6908C28.2502 17.009 28.017 16.1371 27.3363 15.7434Z" fill="#FFD700"/>
<path id="Rectangle 17" d="M33.5057 13.0511L22.2937 6.03257C21.6271 5.61533 20.7492 5.81839 20.3327 6.4861C19.9162 7.15381 20.1189 8.03333 20.7854 8.45057L31.9975 15.4691C32.664 15.8863 33.542 15.6832 33.9585 15.0155C34.375 14.3478 34.1723 13.4683 33.5057 13.0511Z" fill="#FFD700"/>
<path id="Rectangle 4" d="M20.4324 20.9383V33.6362C20.4324 34.4208 21.0673 35.0569 21.8506 35.0569C22.6338 35.0569 23.2688 34.4208 23.2688 33.6362V20.9383C23.2688 20.1537 22.6338 19.5176 21.8506 19.5176C21.0673 19.5176 20.4324 20.1537 20.4324 20.9383Z" fill="#FFD700"/>
<path id="Rectangle 18" d="M31.4141 14.3762V27.4688C31.4141 28.2535 32.049 28.8895 32.8323 28.8895C33.6155 28.8895 34.2504 28.2535 34.2504 27.4688V14.3762C34.2504 13.5916 33.6155 12.9555 32.8323 12.9555C32.049 12.9555 31.4141 13.5916 31.4141 14.3762Z" fill="#FFD700"/>
<path id="Rectangle 15" d="M8.94495 14.1064V26.8928C8.94495 27.6774 9.57989 28.3135 10.3631 28.3135C11.1464 28.3135 11.7813 27.6774 11.7813 26.8928V14.1064C11.7813 13.3218 11.1464 12.6857 10.3631 12.6857C9.57989 12.6857 8.94495 13.3218 8.94495 14.1064Z" fill="#FFD700"/>
</g>
</g>
</svg>
