<svg width="19" height="22" viewBox="0 0 19 22" fill="none" xmlns="http://www.w3.org/2000/svg">
<g id="Box">
<path id="Rectangle 5" d="M17.0864 15.2189L9.34524 19.704C8.85429 19.9884 8.68568 20.6177 8.96863 21.1095C9.25158 21.6013 9.87895 21.7694 10.3699 21.485L18.111 16.9999C18.602 16.7154 18.7706 16.0861 18.4876 15.5943C18.2047 15.1025 17.5773 14.9344 17.0864 15.2189Z" fill="#FFD700"/>
<path id="Rectangle 14" d="M17.0863 5.60281L9.30227 10.1128C8.81132 10.3972 8.64271 11.0265 8.92566 11.5183C9.20861 12.0101 9.83598 12.1782 10.3269 11.8938L18.111 7.38383C18.6019 7.09938 18.7705 6.4701 18.4876 5.97828C18.2046 5.48646 17.5773 5.31836 17.0863 5.60281Z" fill="#FFD700"/>
<path id="Rectangle 16" d="M8.92304 0.515059L0.888944 5.1699C0.397994 5.45434 0.229378 6.08363 0.51233 6.57545C0.795282 7.06726 1.42265 7.23536 1.9136 6.95092L9.9477 2.29608C10.4386 2.01163 10.6073 1.38234 10.3243 0.890528C10.0414 0.398713 9.41399 0.23061 8.92304 0.515059Z" fill="#FFD700"/>
<path id="Rectangle 12" d="M10.3064 19.6925L1.95758 14.8553C1.46492 14.5699 0.835379 14.7386 0.551447 15.2321C0.267514 15.7256 0.436714 16.3571 0.929366 16.6425L9.27823 21.4797C9.77088 21.7652 10.4004 21.5965 10.6844 21.103C10.9683 20.6094 10.7991 19.978 10.3064 19.6925Z" fill="#FFD700"/>
<path id="Rectangle 13" d="M9.84307 10.2874L1.94561 5.71177C1.45296 5.42634 0.823416 5.59502 0.539484 6.08854C0.255551 6.58206 0.424751 7.21353 0.917403 7.49896L8.81486 12.0746C9.30751 12.3601 9.93705 12.1914 10.221 11.6979C10.5049 11.2043 10.3357 10.5729 9.84307 10.2874Z" fill="#FFD700"/>
<path id="Rectangle 19" d="M13.6689 7.57431L5.73712 2.97874C5.24447 2.6933 4.61492 2.86199 4.33099 3.35551C4.04706 3.84903 4.21626 4.4805 4.70891 4.76593L12.6407 9.3615C13.1334 9.64694 13.7629 9.47825 14.0468 8.98473C14.3308 8.49121 14.1616 7.85975 13.6689 7.57431Z" fill="#FFD700"/>
<path id="Rectangle 17" d="M18.1266 5.62578L10.0285 0.547634C9.54615 0.245184 8.91121 0.39177 8.61029 0.875043C8.30936 1.35832 8.45642 1.99527 8.93874 2.29772L17.0369 7.37587C17.5192 7.67832 18.1542 7.53173 18.4551 7.04846C18.756 6.56518 18.609 5.92823 18.1266 5.62578Z" fill="#FFD700"/>
<path id="Rectangle 4" d="M8.68225 11.3315V20.5292C8.68225 21.0951 9.14101 21.5538 9.70691 21.5538C10.2728 21.5538 10.7316 21.0951 10.7316 20.5292V11.3315C10.7316 10.7656 10.2728 10.3068 9.70691 10.3068C9.14101 10.3068 8.68225 10.7656 8.68225 11.3315Z" fill="#FFD700"/>
<path id="Rectangle 18" d="M16.6167 6.58192V16.0653C16.6167 16.6312 17.0755 17.09 17.6414 17.09C18.2073 17.09 18.666 16.6312 18.666 16.0653V6.58192C18.666 6.01602 18.2073 5.55726 17.6414 5.55726C17.0755 5.55726 16.6167 6.01602 16.6167 6.58192Z" fill="#FFD700"/>
<path id="Rectangle 15" d="M0.382568 6.38688L0.382568 15.6486C0.382568 16.2145 0.841324 16.6732 1.40723 16.6732C1.97313 16.6732 2.43189 16.2145 2.43189 15.6486L2.43189 6.38688C2.43189 5.82097 1.97313 5.36222 1.40723 5.36222C0.841324 5.36222 0.382568 5.82097 0.382568 6.38688Z" fill="#FFD700"/>
</g>
</svg>
