<svg width="25" height="25" viewBox="0 0 25 25" fill="none" xmlns="http://www.w3.org/2000/svg">
<path d="M9.88435 7.29163H6.45854C5.29176 7.29163 4.70794 7.29163 4.26229 7.5187C3.87028 7.71843 3.55181 8.03691 3.35207 8.42891C3.125 8.87456 3.125 9.45839 3.125 10.6252V16.4585C3.125 17.6253 3.125 18.2078 3.35207 18.6535C3.55181 19.0455 3.87028 19.365 4.26229 19.5648C4.7075 19.7916 5.29062 19.7916 6.45511 19.7916H18.5449C19.7094 19.7916 20.2917 19.7916 20.7369 19.5648C21.1289 19.365 21.4484 19.0455 21.6482 18.6535C21.875 18.2083 21.875 17.626 21.875 16.4615V10.6217C21.875 9.45724 21.875 8.87413 21.6482 8.42891C21.4484 8.03691 21.1289 7.71843 20.7369 7.5187C20.2912 7.29163 19.7086 7.29163 18.5419 7.29163H15.1154M9.88435 7.29163H9.94873M9.88435 7.29163C9.8974 7.29163 9.91113 7.29163 9.92559 7.29163L9.94873 7.29163M9.88435 7.29163C9.77381 7.29158 9.71187 7.29101 9.66288 7.28552C9.05081 7.21699 8.63102 6.63441 8.75956 6.03208C8.77152 5.97603 8.79517 5.90511 8.84198 5.76466L8.84399 5.75872C8.89746 5.59832 8.9242 5.51812 8.95373 5.44735C9.25611 4.72276 9.94085 4.22999 10.7239 4.17226C10.8004 4.16663 10.8844 4.16663 11.0535 4.16663H13.9464C14.1155 4.16663 14.2002 4.16663 14.2767 4.17226C15.0597 4.22999 15.7438 4.72276 16.0461 5.44735C16.0757 5.51812 16.1025 5.59823 16.156 5.75863C16.2042 5.90307 16.2282 5.97533 16.2404 6.03218C16.3689 6.63451 15.9498 7.21699 15.3377 7.28552C15.2887 7.29101 15.2262 7.29158 15.1154 7.29163M9.94873 7.29163H15.051M15.051 7.29163H15.1154M15.051 7.29163L15.0742 7.29163C15.0886 7.29163 15.1024 7.29163 15.1154 7.29163M12.5 16.6666C10.7741 16.6666 9.375 15.2675 9.375 13.5416C9.375 11.8157 10.7741 10.4166 12.5 10.4166C14.2259 10.4166 15.625 11.8157 15.625 13.5416C15.625 15.2675 14.2259 16.6666 12.5 16.6666Z" stroke="#FFD700" stroke-width="2" stroke-linecap="round" stroke-linejoin="round"/>
</svg>
