<svg width="40" height="40" viewBox="0 0 40 40" fill="none" xmlns="http://www.w3.org/2000/svg">
<path d="M15.815 11.6666H10.3337C8.46682 11.6666 7.5327 11.6666 6.81966 12.0299C6.19245 12.3495 5.68289 12.8591 5.36331 13.4863C5 14.1993 5 15.1334 5 17.0003V26.3336C5 28.2005 5 29.1326 5.36331 29.8456C5.68289 30.4728 6.19245 30.9841 6.81966 31.3037C7.532 31.6666 8.46499 31.6666 10.3282 31.6666H29.6718C31.535 31.6666 32.4667 31.6666 33.179 31.3037C33.8062 30.9841 34.3175 30.4728 34.637 29.8456C35 29.1333 35 28.2016 35 26.3384V16.9948C35 15.1316 35 14.1986 34.637 13.4863C34.3175 12.8591 33.8062 12.3495 33.179 12.0299C32.466 11.6666 31.5338 11.6666 29.667 11.6666H24.1847M15.815 11.6666H15.918M15.815 11.6666C15.8358 11.6666 15.8578 11.6666 15.8809 11.6666L15.918 11.6666M15.815 11.6666C15.6381 11.6666 15.539 11.6656 15.4606 11.6569C14.4813 11.5472 13.8096 10.6151 14.0153 9.65136C14.0344 9.56167 14.0723 9.4482 14.1472 9.22349L14.1504 9.21398C14.2359 8.95734 14.2787 8.82902 14.326 8.71578C14.8098 7.55644 15.9054 6.76801 17.1582 6.67565C17.2806 6.66663 17.415 6.66663 17.6855 6.66663H22.3143C22.5848 6.66663 22.7204 6.66663 22.8428 6.67565C24.0956 6.76801 25.19 7.55644 25.6738 8.71578C25.7211 8.82901 25.7641 8.9572 25.8496 9.21383C25.9266 9.44494 25.9652 9.56056 25.9846 9.65151C26.1903 10.6152 25.5197 11.5472 24.5404 11.6569C24.462 11.6656 24.3619 11.6666 24.1847 11.6666M15.918 11.6666H24.0816M24.0816 11.6666H24.1847M24.0816 11.6666L24.1186 11.6666C24.1418 11.6666 24.1638 11.6666 24.1847 11.6666M20 26.6666C17.2386 26.6666 15 24.428 15 21.6666C15 18.9052 17.2386 16.6666 20 16.6666C22.7614 16.6666 25 18.9052 25 21.6666C25 24.428 22.7614 26.6666 20 26.6666Z" stroke="#5C5C5C" stroke-width="2" stroke-linecap="round" stroke-linejoin="round"/>
</svg>
