<svg width="26" height="26" viewBox="0 0 26 26" fill="none" xmlns="http://www.w3.org/2000/svg">
<g clip-path="url(#clip0_1_411)">
<path d="M23.608 20.2622C23.2148 21.1706 22.7493 22.0067 22.2101 22.7755C21.4751 23.8234 20.8732 24.5489 20.4094 24.9517C19.6904 25.6129 18.9201 25.9515 18.0952 25.9708C17.503 25.9708 16.7888 25.8023 15.9575 25.4604C15.1234 25.1202 14.3569 24.9517 13.6561 24.9517C12.921 24.9517 12.1327 25.1202 11.2895 25.4604C10.445 25.8023 9.76468 25.9804 9.24454 25.9981C8.45349 26.0318 7.66501 25.6835 6.87797 24.9517C6.37564 24.5136 5.74733 23.7625 4.99464 22.6984C4.18706 21.5622 3.52312 20.2445 3.00297 18.7424C2.44592 17.1198 2.16667 15.5486 2.16667 14.0275C2.16667 12.2851 2.54317 10.7823 3.29731 9.52292C3.88999 8.51135 4.67848 7.7134 5.66532 7.12762C6.65217 6.54183 7.71845 6.24332 8.86675 6.22422C9.49506 6.22422 10.319 6.41858 11.3429 6.80054C12.364 7.18379 13.0196 7.37814 13.307 7.37814C13.5219 7.37814 14.2502 7.15089 15.4848 6.69783C16.6524 6.27767 17.6378 6.1037 18.445 6.17223C20.6325 6.34876 22.2759 7.21107 23.3688 8.76461C21.4125 9.94998 20.4447 11.6102 20.464 13.7401C20.4816 15.3991 21.0835 16.7796 22.2663 17.8757C22.8023 18.3845 23.4009 18.7777 24.067 19.0569C23.9225 19.4758 23.7701 19.877 23.608 20.2622V20.2622ZM18.5911 0.520446C18.5911 1.82074 18.116 3.03483 17.1692 4.15857C16.0265 5.49448 14.6443 6.26643 13.1455 6.14462C13.1264 5.98863 13.1154 5.82445 13.1154 5.65192C13.1154 4.40364 13.6588 3.06773 14.6238 1.97544C15.1056 1.42239 15.7183 0.962545 16.4614 0.595714C17.2029 0.234357 17.9042 0.034519 18.5638 0.000297546C18.5831 0.174127 18.5911 0.347967 18.5911 0.520429V0.520446Z" fill="#5C5C5C"/>
</g>
<defs>
<clipPath id="clip0_1_411">
<rect width="26" height="26" fill="white"/>
</clipPath>
</defs>
</svg>
