<svg width="25" height="25" viewBox="0 0 25 25" fill="none" xmlns="http://www.w3.org/2000/svg">
<g id="Navigation / House_01">
<path id="Vector" d="M20.8333 17.7084V11.9293C20.8333 11.3727 20.8329 11.0943 20.7652 10.8353C20.7052 10.6058 20.6068 10.3886 20.4735 10.1923C20.3232 9.97079 20.1141 9.78712 19.6952 9.42059L14.6952 5.04559C13.9175 4.36509 13.5287 4.02501 13.091 3.89559C12.7054 3.78155 12.2944 3.78155 11.9088 3.89559C11.4715 4.02491 11.0832 4.36467 10.3066 5.04414L5.30498 9.42059C4.88609 9.78712 4.67713 9.97079 4.52678 10.1923C4.39354 10.3886 4.29433 10.6058 4.23435 10.8353C4.16667 11.0943 4.16667 11.3727 4.16667 11.9293V17.7084C4.16667 18.6792 4.16667 19.1643 4.32526 19.5472C4.5367 20.0577 4.942 20.4637 5.45248 20.6752C5.83534 20.8338 6.32069 20.8338 7.2914 20.8338C8.26211 20.8338 8.74801 20.8338 9.13086 20.6752C9.64134 20.4637 10.0465 20.0578 10.258 19.5473C10.4166 19.1644 10.4167 18.6791 10.4167 17.7084V16.6667C10.4167 15.5161 11.3494 14.5834 12.5 14.5834C13.6506 14.5834 14.5833 15.5161 14.5833 16.6667V17.7084C14.5833 18.6791 14.5833 19.1644 14.7419 19.5473C14.9534 20.0578 15.3587 20.4637 15.8691 20.6752C16.252 20.8338 16.7374 20.8338 17.7081 20.8338C18.6788 20.8338 19.1647 20.8338 19.5475 20.6752C20.058 20.4637 20.4632 20.0577 20.6746 19.5472C20.8332 19.1643 20.8333 18.6792 20.8333 17.7084Z" stroke="#878787" stroke-width="2" stroke-linecap="round" stroke-linejoin="round"/>
</g>
</svg>
