<svg width="18" height="18" viewBox="0 0 18 18" fill="none" xmlns="http://www.w3.org/2000/svg">
<g id="Humidity 1">
<g id="32/Humidity">
<path id="outline" fill-rule="evenodd" clip-rule="evenodd" d="M12.7296 11.2706C12.7296 12.8298 11.1726 14.39 8.85542 14.39C6.53823 14.39 4.98119 12.8298 4.98119 11.2706C4.98119 9.65326 6.0331 7.63911 7.26948 5.8857C7.8283 5.09319 8.38915 4.40286 8.82773 3.89289C9.27465 4.4427 9.85457 5.19114 10.4324 6.0358C11.0348 6.91648 11.6208 7.88121 12.0526 8.82012C12.4923 9.77623 12.7296 10.6157 12.7296 11.2706ZM3.87427 11.2706C3.87427 8.26153 6.7142 4.63303 8.10535 3.03611C8.5566 2.51811 8.85542 2.21387 8.85542 2.21387C8.85542 2.21387 9.14169 2.53032 9.57697 3.06041C10.9574 4.74152 13.8366 8.57132 13.8366 11.2706C13.8366 13.6047 11.6064 15.4969 8.85542 15.4969C6.1044 15.4969 3.87427 13.6047 3.87427 11.2706ZM6.36392 9.40886H7.55474C7.33068 9.92022 7.19503 10.4052 7.19503 10.8177C7.19503 11.4512 7.81471 12.1762 8.85542 12.1762V13.2831C7.32708 13.2831 6.08811 12.1793 6.08811 10.8177C6.08811 10.3634 6.19382 9.88481 6.36392 9.40886Z" fill="white"/>
</g>
</g>
</svg>
