<svg width="17" height="17" viewBox="0 0 17 17" fill="none" xmlns="http://www.w3.org/2000/svg">
<g id="Lock 1">
<g id="Interface / Lock">
<path id="Vector" d="M6.05217 5.91161H4.72097C3.98654 5.91161 3.61906 5.91161 3.33855 6.05479C3.0918 6.18073 2.89133 6.38156 2.76561 6.62874C2.62268 6.90975 2.62268 7.27788 2.62268 8.01361V11.6919C2.62268 12.4276 2.62268 12.7953 2.76561 13.0763C2.89133 13.3235 3.0918 13.5246 3.33855 13.6506C3.61878 13.7937 3.98585 13.7937 4.71883 13.7937H11.0174C11.7503 13.7937 12.1169 13.7937 12.3971 13.6506C12.6438 13.5246 12.845 13.3235 12.9707 13.0763C13.1135 12.7956 13.1135 12.4284 13.1135 11.6942V8.01145C13.1135 7.27717 13.1135 6.90948 12.9707 6.62874C12.845 6.38156 12.6438 6.18073 12.3971 6.05479C12.1166 5.91161 11.7499 5.91161 11.0155 5.91161H9.68361M6.05217 5.91161H9.68361M6.05217 5.91161C5.9686 5.91161 5.90106 5.84374 5.90106 5.76002V3.94109C5.90106 2.8528 6.78173 1.97058 7.86808 1.97058C8.95445 1.97058 9.83512 2.8528 9.83512 3.94109V5.76002C9.83512 5.84374 9.76717 5.91161 9.68361 5.91161" stroke="#FFD700" stroke-width="2" stroke-linecap="round" stroke-linejoin="round"/>
</g>
</g>
</svg>
