<svg width="64" height="23" viewBox="0 0 64 23" fill="none" xmlns="http://www.w3.org/2000/svg">
<path id="&#226;&#128;&#162;&#226;&#128;&#162;&#226;&#128;&#162;&#226;&#128;&#162;&#226;&#128;&#162;&#226;&#128;&#162;&#226;&#128;&#162;&#226;&#128;&#162;" d="M3.34844 13.835C2.83844 13.835 2.40344 13.66 2.04344 13.31C1.69344 12.95 1.51844 12.515 1.51844 12.005C1.51844 11.485 1.69344 11.05 2.04344 10.7C2.40344 10.34 2.83844 10.16 3.34844 10.16C3.86844 10.16 4.30844 10.34 4.66844 10.7C5.02844 11.05 5.20844 11.485 5.20844 12.005C5.20844 12.515 5.02844 12.95 4.66844 13.31C4.30844 13.66 3.86844 13.835 3.34844 13.835ZM11.5301 13.835C11.0201 13.835 10.5851 13.66 10.2251 13.31C9.87508 12.95 9.70008 12.515 9.70008 12.005C9.70008 11.485 9.87508 11.05 10.2251 10.7C10.5851 10.34 11.0201 10.16 11.5301 10.16C12.0501 10.16 12.4901 10.34 12.8501 10.7C13.2101 11.05 13.3901 11.485 13.3901 12.005C13.3901 12.515 13.2101 12.95 12.8501 13.31C12.4901 13.66 12.0501 13.835 11.5301 13.835ZM19.7117 13.835C19.2017 13.835 18.7667 13.66 18.4067 13.31C18.0567 12.95 17.8817 12.515 17.8817 12.005C17.8817 11.485 18.0567 11.05 18.4067 10.7C18.7667 10.34 19.2017 10.16 19.7117 10.16C20.2317 10.16 20.6717 10.34 21.0317 10.7C21.3917 11.05 21.5717 11.485 21.5717 12.005C21.5717 12.515 21.3917 12.95 21.0317 13.31C20.6717 13.66 20.2317 13.835 19.7117 13.835ZM27.8934 13.835C27.3834 13.835 26.9484 13.66 26.5884 13.31C26.2384 12.95 26.0634 12.515 26.0634 12.005C26.0634 11.485 26.2384 11.05 26.5884 10.7C26.9484 10.34 27.3834 10.16 27.8934 10.16C28.4134 10.16 28.8534 10.34 29.2134 10.7C29.5734 11.05 29.7534 11.485 29.7534 12.005C29.7534 12.515 29.5734 12.95 29.2134 13.31C28.8534 13.66 28.4134 13.835 27.8934 13.835ZM36.075 13.835C35.565 13.835 35.13 13.66 34.77 13.31C34.42 12.95 34.245 12.515 34.245 12.005C34.245 11.485 34.42 11.05 34.77 10.7C35.13 10.34 35.565 10.16 36.075 10.16C36.595 10.16 37.035 10.34 37.395 10.7C37.755 11.05 37.935 11.485 37.935 12.005C37.935 12.515 37.755 12.95 37.395 13.31C37.035 13.66 36.595 13.835 36.075 13.835ZM44.2566 13.835C43.7466 13.835 43.3116 13.66 42.9516 13.31C42.6016 12.95 42.4266 12.515 42.4266 12.005C42.4266 11.485 42.6016 11.05 42.9516 10.7C43.3116 10.34 43.7466 10.16 44.2566 10.16C44.7766 10.16 45.2166 10.34 45.5766 10.7C45.9366 11.05 46.1166 11.485 46.1166 12.005C46.1166 12.515 45.9366 12.95 45.5766 13.31C45.2166 13.66 44.7766 13.835 44.2566 13.835ZM52.4383 13.835C51.9283 13.835 51.4933 13.66 51.1333 13.31C50.7833 12.95 50.6083 12.515 50.6083 12.005C50.6083 11.485 50.7833 11.05 51.1333 10.7C51.4933 10.34 51.9283 10.16 52.4383 10.16C52.9583 10.16 53.3983 10.34 53.7583 10.7C54.1183 11.05 54.2983 11.485 54.2983 12.005C54.2983 12.515 54.1183 12.95 53.7583 13.31C53.3983 13.66 52.9583 13.835 52.4383 13.835ZM60.6199 13.835C60.1099 13.835 59.6749 13.66 59.3149 13.31C58.9649 12.95 58.7899 12.515 58.7899 12.005C58.7899 11.485 58.9649 11.05 59.3149 10.7C59.6749 10.34 60.1099 10.16 60.6199 10.16C61.1399 10.16 61.5799 10.34 61.9399 10.7C62.2999 11.05 62.4799 11.485 62.4799 12.005C62.4799 12.515 62.2999 12.95 61.9399 13.31C61.5799 13.66 61.1399 13.835 60.6199 13.835Z" fill="white" fill-opacity="0.7"/>
</svg>
