<svg width="17" height="17" viewBox="0 0 17 17" fill="none" xmlns="http://www.w3.org/2000/svg">
<g id="Reload 1">
<g id="Reload">
<path id="Vector" d="M7.08337 11.3333H3.54171V14.875M9.91671 5.66667H13.4584V2.125M3.24634 6.37741C3.64349 5.39443 4.30844 4.54257 5.1656 3.91866C6.02276 3.29475 7.03865 2.92366 8.09612 2.84786C9.15359 2.77206 10.2105 2.99441 11.1479 3.48968C12.0853 3.98496 12.8642 4.73346 13.3975 5.64975M13.7541 10.6229C13.357 11.6059 12.692 12.4578 11.8349 13.0817C10.9777 13.7056 9.96287 14.0762 8.9054 14.152C7.84793 14.2278 6.79017 14.0055 5.85278 13.5102C4.9154 13.0149 4.13587 12.2666 3.60258 11.3503" stroke="white" stroke-width="2" stroke-linecap="round" stroke-linejoin="round"/>
</g>
</g>
</svg>
