<svg width="25" height="25" viewBox="0 0 25 25" fill="none" xmlns="http://www.w3.org/2000/svg">
<g id="Settings 1">
<g id="Interface / Settings">
<g id="Vector">
<path id="Vector_2" d="M21.1979 9.29472L20.8164 9.0825C20.7571 9.04955 20.728 9.03301 20.6994 9.01587C20.4149 8.84547 20.1752 8.61004 20.0002 8.32836C19.9826 8.30002 19.966 8.2703 19.9321 8.21156C19.8982 8.15289 19.881 8.12316 19.8653 8.09373C19.7083 7.80069 19.6234 7.47412 19.6183 7.14173C19.6178 7.10832 19.6179 7.07417 19.6191 7.0063L19.6265 6.56331C19.6385 5.85443 19.6444 5.49889 19.5448 5.17981C19.4563 4.89639 19.3083 4.63534 19.1106 4.4138C18.8871 4.16339 18.5778 3.98473 17.9586 3.62788L17.4442 3.33146C16.8266 2.9756 16.5178 2.79761 16.1899 2.72976C15.8999 2.66973 15.6005 2.67251 15.3115 2.73739C14.9854 2.81061 14.6804 2.99324 14.0707 3.35829L14.0672 3.35995L13.6987 3.58063C13.6404 3.61553 13.6109 3.63312 13.5817 3.64936C13.2918 3.81052 12.9682 3.89964 12.6367 3.91028C12.6033 3.91135 12.5693 3.91135 12.5014 3.91135C12.4338 3.91135 12.3984 3.91135 12.365 3.91028C12.0328 3.89959 11.7086 3.80999 11.4182 3.64816C11.389 3.63185 11.36 3.61412 11.3016 3.57906L10.9307 3.35639C10.3169 2.98788 10.0095 2.80335 9.68154 2.72976C9.39136 2.66465 9.09101 2.66285 8.7999 2.72365C8.47121 2.79231 8.16226 2.97162 7.54436 3.33024L7.54161 3.33146L7.03363 3.62629L7.02801 3.62973C6.41567 3.98512 6.10876 4.16325 5.88718 4.41264C5.69056 4.63396 5.54359 4.8946 5.45562 5.17727C5.35619 5.49678 5.36149 5.85309 5.37347 6.56531L5.38091 7.00766C5.38204 7.07465 5.384 7.10794 5.38351 7.14088C5.37858 7.47395 5.29256 7.80118 5.13515 8.09475C5.11958 8.12378 5.10281 8.15281 5.06931 8.21081C5.03579 8.26884 5.01956 8.2977 5.00217 8.3257C4.82642 8.60888 4.58556 8.84569 4.2993 9.01638C4.27099 9.03326 4.24115 9.0495 4.18252 9.08199L3.80589 9.29071C3.17925 9.63797 2.86601 9.81175 2.63808 10.0591C2.43644 10.2778 2.28412 10.5373 2.19114 10.82C2.08603 11.1394 2.08612 11.4977 2.08775 12.2141L2.08908 12.7997C2.09069 13.5113 2.09291 13.8669 2.19825 14.1842C2.29144 14.4649 2.44266 14.7229 2.64317 14.9403C2.86981 15.1861 3.17994 15.3589 3.80182 15.7048L4.17509 15.9125C4.23861 15.9478 4.27058 15.9653 4.30121 15.9837C4.58488 16.1545 4.82385 16.3907 4.99811 16.6722C5.01693 16.7026 5.035 16.7342 5.07114 16.7973C5.10683 16.8597 5.12509 16.8909 5.1416 16.9221C5.29438 17.2114 5.37619 17.5328 5.38176 17.8599C5.38237 17.8952 5.38185 17.9309 5.38064 18.0028L5.37347 18.4273C5.36141 19.142 5.35615 19.4997 5.45617 19.8201C5.54465 20.1035 5.69254 20.3646 5.89024 20.5861C6.1137 20.8365 6.42349 21.0151 7.04278 21.3719L7.55706 21.6683C8.17461 22.0241 8.48328 22.2019 8.81113 22.2698C9.10118 22.3298 9.40067 22.3275 9.68967 22.2626C10.0163 22.1893 10.3224 22.006 10.9338 21.6399L11.3023 21.4192C11.3606 21.3843 11.3902 21.3668 11.4194 21.3506C11.7093 21.1894 12.0325 21.0998 12.364 21.0892C12.3974 21.0881 12.4314 21.0881 12.4994 21.0881C12.5675 21.0881 12.6014 21.0881 12.6349 21.0892C12.9671 21.0999 13.2924 21.1898 13.5827 21.3516C13.6082 21.3658 13.6338 21.3812 13.6788 21.4082L14.0706 21.6434C14.6845 22.012 14.9912 22.196 15.3192 22.2696C15.6094 22.3347 15.91 22.3373 16.2011 22.2765C16.5297 22.2079 16.8393 22.0282 17.4568 21.6698L17.9725 21.3705C18.5852 21.0149 18.8924 20.8366 19.1141 20.5871C19.3107 20.3658 19.4579 20.1053 19.5458 19.8226C19.6445 19.5054 19.6386 19.1519 19.6268 18.4499L19.6191 17.9921C19.618 17.9251 19.6178 17.8918 19.6183 17.8588C19.6232 17.5258 19.7078 17.1983 19.8653 16.9048C19.8808 16.8758 19.8977 16.8465 19.9311 16.7887C19.9646 16.7307 19.982 16.7018 19.9993 16.6737C20.1751 16.3906 20.4162 16.1536 20.7025 15.9829C20.7304 15.9662 20.7592 15.9502 20.8165 15.9185L20.8184 15.9176L21.195 15.7089C21.8217 15.3616 22.1355 15.1877 22.3635 14.9403C22.5651 14.7216 22.7172 14.4624 22.8102 14.1798C22.9147 13.8622 22.9139 13.506 22.9123 12.798L22.9109 12.1999C22.9093 11.4882 22.9084 11.1327 22.8031 10.8154C22.7099 10.5347 22.5578 10.2767 22.3573 10.0592C22.1309 9.81365 21.8203 9.64089 21.1997 9.2956L21.1979 9.29472Z" stroke="#878787" stroke-width="2" stroke-linecap="round" stroke-linejoin="round"/>
<path id="Vector_3" d="M8.33362 12.5C8.33362 14.8011 10.1991 16.6666 12.5002 16.6666C14.8014 16.6666 16.6669 14.8011 16.6669 12.5C16.6669 10.1988 14.8014 8.33325 12.5002 8.33325C10.1991 8.33325 8.33362 10.1988 8.33362 12.5Z" stroke="#878787" stroke-width="2" stroke-linecap="round" stroke-linejoin="round"/>
</g>
</g>
</g>
</svg>
