<svg width="18" height="18" viewBox="0 0 18 18" fill="none" xmlns="http://www.w3.org/2000/svg">
<g id="Temperatura Icon 1">
<g id="Temperatura Icon">
<path id="Vector" fill-rule="evenodd" clip-rule="evenodd" d="M6.69245 9.58769V4.125C6.69245 2.88236 7.72563 1.875 9.00003 1.875C10.2744 1.875 11.3076 2.88236 11.3076 4.125V9.58769C12.5696 10.5476 13.0666 12.183 12.5456 13.6586C12.0246 15.1343 10.6005 16.1248 9.00003 16.1248C7.39947 16.1248 5.97538 15.1343 5.45442 13.6586C4.93346 12.183 5.43049 10.5476 6.69188 9.58704L6.69245 9.58769Z" stroke="white" stroke-width="2" stroke-linecap="round" stroke-linejoin="round"/>
<path id="Vector_2" d="M8.99998 13.6874C9.77665 13.6874 10.4062 13.0578 10.4062 12.2812C10.4062 11.5045 9.77665 10.8749 8.99998 10.8749C8.22332 10.8749 7.59375 11.5045 7.59375 12.2812C7.59375 13.0578 8.22332 13.6874 8.99998 13.6874Z" stroke="white" stroke-width="2" stroke-linecap="round" stroke-linejoin="round"/>
<path id="Vector_3" d="M9.00244 10.125V5.625" stroke="white" stroke-width="2" stroke-linecap="round" stroke-linejoin="round"/>
<path id="Vector_4" d="M15 4.5C15.8284 4.5 16.5 3.82843 16.5 3C16.5 2.17157 15.8284 1.5 15 1.5C14.1715 1.5 13.5 2.17157 13.5 3C13.5 3.82843 14.1715 4.5 15 4.5Z" fill="white"/>
</g>
</g>
</svg>
