<svg width="22" height="22" viewBox="0 0 22 22" fill="none" xmlns="http://www.w3.org/2000/svg">
<g id="Unlocked 1">
<g id="Unlocked">
<path id="Vector" d="M8.24997 8.25H6.60014C5.57338 8.25 5.05962 8.25 4.66745 8.44982C4.32248 8.62559 4.04222 8.90585 3.86645 9.25081C3.66663 9.64299 3.66663 10.1567 3.66663 11.1835V16.3168C3.66663 17.3436 3.66663 17.8567 3.86645 18.2489C4.04222 18.5939 4.32248 18.8746 4.66745 19.0504C5.05924 19.25 5.57239 19.25 6.59716 19.25H15.4028C16.4276 19.25 16.94 19.25 17.3318 19.0504C17.6767 18.8746 17.9579 18.5939 18.1337 18.2489C18.3333 17.8571 18.3333 17.3447 18.3333 16.3199V11.1805C18.3333 10.1557 18.3333 9.6426 18.1337 9.25081C17.9579 8.90585 17.6767 8.62559 17.3318 8.44982C16.9396 8.25 16.4269 8.25 15.4002 8.25H8.24997ZM8.24997 8.25V5.61011C8.24997 4.03057 9.44165 2.75 10.9117 2.75C11.667 2.75 12.3482 3.08806 12.8327 3.63104" stroke="#FFD700" stroke-width="2" stroke-linecap="round" stroke-linejoin="round"/>
</g>
</g>
</svg>
